<?xml version="1.0" encoding="utf-8"?>
<!-- Generator: Adobe Illustrator 23.0.3, SVG Export Plug-In . SVG Version: 6.00 Build 0)  -->
<svg version="1.1" id="Layer_1" xmlns="http://www.w3.org/2000/svg" xmlns:xlink="http://www.w3.org/1999/xlink" x="0px" y="0px"
	 viewBox="0 0 387.9 387.9" style="enable-background:new 0 0 387.9 387.9;" xml:space="preserve">
<style type="text/css">
	.st0{fill:url(#SVGID_1_);}
	.st1{fill:url(#SVGID_2_);}
	.st2{fill:url(#SVGID_3_);}
	.st3{fill:url(#SVGID_4_);}
	.st4{fill:url(#SVGID_5_);}
	.st5{fill:url(#SVGID_6_);}
	.st6{fill:url(#SVGID_7_);}
	.st7{fill:url(#SVGID_8_);}
	.st8{fill:url(#SVGID_9_);}
	.st9{fill:url(#SVGID_10_);}
	.st10{fill:url(#SVGID_11_);}
	.st11{fill:url(#SVGID_12_);}
	.st12{fill:url(#SVGID_13_);}
	.st13{fill:url(#SVGID_14_);}
	.st14{fill:url(#SVGID_15_);}
	.st15{fill:url(#SVGID_16_);}
	.st16{fill:url(#SVGID_17_);}
	.st17{fill:url(#SVGID_18_);}
	.st18{fill:url(#SVGID_19_);}
	.st19{fill:url(#SVGID_20_);}
	.st20{fill:url(#SVGID_21_);}
	.st21{fill:url(#SVGID_22_);}
	.st22{fill:url(#SVGID_23_);}
	.st23{fill:url(#SVGID_24_);}
	.st24{fill:url(#SVGID_25_);}
	.st25{fill:url(#SVGID_26_);}
	.st26{fill:url(#SVGID_27_);}
	.st27{fill:url(#SVGID_28_);}
	.st28{fill:url(#SVGID_29_);}
	.st29{fill:url(#SVGID_30_);}
	.st30{fill:url(#SVGID_31_);}
	.st31{fill:url(#SVGID_32_);}
	.st32{fill:url(#SVGID_33_);}
	.st33{fill:url(#SVGID_34_);}
	.st34{fill:url(#SVGID_35_);}
	.st35{fill:url(#SVGID_36_);}
	.st36{fill:url(#SVGID_37_);}
	.st37{fill:url(#SVGID_38_);}
	.st38{fill:url(#SVGID_39_);}
	.st39{fill:url(#SVGID_40_);}
	.st40{fill:url(#SVGID_41_);}
	.st41{fill:url(#SVGID_42_);}
	.st42{fill:url(#SVGID_43_);}
	.st43{fill:url(#SVGID_44_);}
	.st44{fill:url(#SVGID_45_);}
	.st45{fill:url(#SVGID_46_);}
	.st46{fill:url(#SVGID_47_);}
	.st47{fill:url(#SVGID_48_);}
	.st48{fill:url(#SVGID_49_);}
	.st49{fill:url(#SVGID_50_);}
	.st50{fill:url(#SVGID_51_);}
	.st51{fill:url(#SVGID_52_);}
	.st52{fill:url(#SVGID_53_);}
	.st53{fill:url(#SVGID_54_);}
	.st54{fill:url(#SVGID_55_);}
	.st55{fill:url(#SVGID_56_);}
	.st56{fill:url(#SVGID_57_);}
	.st57{fill:url(#SVGID_58_);}
	.st58{fill:url(#SVGID_59_);}
	.st59{fill:url(#SVGID_60_);}
	.st60{fill:url(#SVGID_61_);}
	.st61{fill:url(#SVGID_62_);}
	.st62{fill:url(#SVGID_63_);}
	.st63{fill:url(#SVGID_64_);}
	.st64{fill:url(#SVGID_65_);}
	.st65{fill:url(#SVGID_66_);}
	.st66{fill:url(#SVGID_67_);}
	.st67{fill:url(#SVGID_68_);}
	.st68{fill:url(#SVGID_69_);}
	.st69{fill:url(#SVGID_70_);}
	.st70{fill:url(#SVGID_71_);}
	.st71{fill:url(#SVGID_72_);}
	.st72{fill:url(#SVGID_73_);}
	.st73{fill:url(#SVGID_74_);}
	.st74{fill:url(#SVGID_75_);}
	.st75{fill:url(#SVGID_76_);}
	.st76{fill:url(#SVGID_77_);}
	.st77{fill:url(#SVGID_78_);}
	.st78{fill:url(#SVGID_79_);}
	.st79{fill:url(#SVGID_80_);}
	.st80{fill:url(#SVGID_81_);}
	.st81{fill:url(#SVGID_82_);}
	.st82{fill:url(#SVGID_83_);}
	.st83{fill:url(#SVGID_84_);}
	.st84{fill:url(#SVGID_85_);}
	.st85{fill:url(#SVGID_86_);}
	.st86{fill:url(#SVGID_87_);}
	.st87{fill:url(#SVGID_88_);}
	.st88{fill:url(#SVGID_89_);}
	.st89{fill:url(#SVGID_90_);}
	.st90{fill:url(#SVGID_91_);}
	.st91{fill:url(#SVGID_92_);}
	.st92{fill:url(#SVGID_93_);}
	.st93{fill:url(#SVGID_94_);}
	.st94{fill:url(#SVGID_95_);}
	.st95{fill:url(#SVGID_96_);}
	.st96{fill:url(#SVGID_97_);}
	.st97{fill:url(#SVGID_98_);}
	.st98{fill:url(#SVGID_99_);}
	.st99{fill:url(#SVGID_100_);}
	.st100{fill:url(#SVGID_101_);}
	.st101{fill:url(#SVGID_102_);}
	.st102{fill:url(#SVGID_103_);}
	.st103{fill:url(#SVGID_104_);}
	.st104{fill:url(#SVGID_105_);}
	.st105{fill:url(#SVGID_106_);}
	.st106{fill:url(#SVGID_107_);}
	.st107{fill:url(#SVGID_108_);}
	.st108{fill:url(#SVGID_109_);}
	.st109{fill:url(#SVGID_110_);}
	.st110{fill:url(#SVGID_111_);}
	.st111{fill:url(#SVGID_112_);}
	.st112{fill:url(#SVGID_113_);}
	.st113{fill:url(#SVGID_114_);}
	.st114{fill:url(#SVGID_115_);}
	.st115{fill:url(#SVGID_116_);}
	.st116{fill:url(#SVGID_117_);}
	.st117{fill:url(#SVGID_118_);}
	.st118{fill:url(#SVGID_119_);}
	.st119{fill:url(#SVGID_120_);}
	.st120{fill:url(#SVGID_121_);}
	.st121{fill:url(#SVGID_122_);}
	.st122{fill:url(#SVGID_123_);}
	.st123{fill:url(#SVGID_124_);}
	.st124{fill:url(#SVGID_125_);}
	.st125{fill:url(#SVGID_126_);}
	.st126{fill:url(#SVGID_127_);}
	.st127{fill:url(#SVGID_128_);}
	.st128{fill:url(#SVGID_129_);}
	.st129{fill:url(#SVGID_130_);}
	.st130{fill:url(#SVGID_131_);}
	.st131{fill:url(#SVGID_132_);}
	.st132{fill:url(#SVGID_133_);}
	.st133{fill:url(#SVGID_134_);}
	.st134{fill:url(#SVGID_135_);}
	.st135{fill:url(#SVGID_136_);}
	.st136{fill:url(#SVGID_137_);}
	.st137{fill:url(#SVGID_138_);}
	.st138{fill:url(#SVGID_139_);}
	.st139{fill:url(#SVGID_140_);}
	.st140{fill:url(#SVGID_141_);}
	.st141{fill:url(#SVGID_142_);}
	.st142{fill:url(#SVGID_143_);}
	.st143{fill:url(#SVGID_144_);}
	.st144{fill:url(#SVGID_145_);}
	.st145{fill:url(#SVGID_146_);}
	.st146{fill:url(#SVGID_147_);}
	.st147{fill:url(#SVGID_148_);}
	.st148{fill:url(#SVGID_149_);}
	.st149{fill:url(#SVGID_150_);}
	.st150{fill:url(#SVGID_151_);}
	.st151{fill:url(#SVGID_152_);}
	.st152{fill:url(#SVGID_153_);}
	.st153{fill:url(#SVGID_154_);}
	.st154{fill:url(#SVGID_155_);}
	.st155{fill:url(#SVGID_156_);}
	.st156{fill:url(#SVGID_157_);}
	.st157{fill:url(#SVGID_158_);}
	.st158{fill:url(#SVGID_159_);}
	.st159{fill:url(#SVGID_160_);}
	.st160{fill:url(#SVGID_161_);}
	.st161{fill:url(#SVGID_162_);}
	.st162{fill:url(#SVGID_163_);}
	.st163{fill:url(#SVGID_164_);}
	.st164{fill:url(#SVGID_165_);}
	.st165{fill:url(#SVGID_166_);}
	.st166{fill:url(#SVGID_167_);}
	.st167{fill:url(#SVGID_168_);}
	.st168{fill:url(#SVGID_169_);}
	.st169{fill:url(#SVGID_170_);}
</style>
<g>
	<linearGradient id="SVGID_1_" gradientUnits="userSpaceOnUse" x1="49.1627" y1="248.1297" x2="353.0074" y2="248.1297">
		<stop  offset="0" style="stop-color:#067FED"/>
		<stop  offset="1" style="stop-color:#07EDE6"/>
	</linearGradient>
	<path class="st0" d="M57.4,247c-2.5,8.1-2.3,16.5-2.3,24.8c0,38.6,23.8,58.4,61.8,51.5c20-3.6,38.2-11.9,55.5-22.3
		c21.1-12.7,39.8-28.3,57.1-45.7c3.2-3.2,3.8-5.2-0.7-7.5c-3.9-2-7.7-4.2-11.2-6.9c-1.8-1.4-6.5-1.3-4.6-5.3
		c1.6-3.3,4.6-4.6,8.7-3.4c8.1,2.4,16.4,4.3,24.5,6.5c4,1.1,7,0.5,10-2.8c9.1-9.9,18.3-19.8,28-29.2c5.3-5.1,2.9-6.4-2.1-8.5
		c-16.5-6.9-32.8-14-49.2-21.1c-2.8-1.2-6.1-1.7-8-4.4c5.3-9,11.9-11.3,22.5-8c17.9,5.7,36.4,9.3,54.5,14.2
		c5.2,1.4,8.7,0.8,12.2-3.4c4.4-5.3,9.3-10.2,14.3-14.9c6.3-6.1,14.5-6.3,20.2-0.9c6.1,5.7,6.1,14.1-0.1,20.9
		c-1.1,1.2-2.1,2.5-3.4,3.3c-15.1,9.6-17.9,22.1-11.5,38.7c4.8,12.4,5.9,26.3,10.4,38.9c3.8,10.5,1.4,17.2-8.6,23.1
		c-9.1-21.1-18.2-42.1-28-64.7c-12.7,12.2-24.7,23.8-36.7,35.4c-2.5,2.5-0.9,5.3-0.2,8c1.9,7.9,3.8,15.8,6.1,23.6
		c1.2,3.9,0.5,7.1-2.9,8.8c-4.6,2.3-4.5-2.9-5.9-4.9c-3.6-5.1-6.7-10.6-10.3-16.5c-15.4,12.4-30.8,24.2-47.6,33.9
		c-27.3,15.9-55.8,28.4-87.7,31.4c-11.1,1-21.9,0.3-32.6-2.6c-23.7-6.4-38.8-25.1-40.2-49.7c-0.9-14.6,1.5-28.6,6.3-42.4
		C57.3,244.8,58.2,245.1,57.4,247z"/>
	<linearGradient id="SVGID_2_" gradientUnits="userSpaceOnUse" x1="198.0866" y1="310.8355" x2="263.4202" y2="310.8355">
		<stop  offset="0" style="stop-color:#067FED"/>
		<stop  offset="1" style="stop-color:#07EDE6"/>
	</linearGradient>
	<path class="st1" d="M198.1,325.3c9.2-5.7,18-11.2,28.6-13.6c10.6-2.4,20.3-7.9,29.4-14c2.3-1.6,4.1-2.5,6,0.7
		c1.7,2.8,2.2,4.6-1.1,6.7C241.7,317.3,221,325,198.1,325.3z"/>
	<linearGradient id="SVGID_3_" gradientUnits="userSpaceOnUse" x1="282.8318" y1="261.2585" x2="309.3789" y2="261.2585">
		<stop  offset="0" style="stop-color:#067FED"/>
		<stop  offset="1" style="stop-color:#07EDE6"/>
	</linearGradient>
	<path class="st2" d="M285.6,284.1c-3.5-6-4.3-10.2,1.5-15.8c8.2-8.1,12.9-19.1,17.2-29.9c6.2,7.2,6.4,8.3,2.4,15.9
		C301,265.1,294.3,275.1,285.6,284.1z"/>
	<linearGradient id="SVGID_4_" gradientUnits="userSpaceOnUse" x1="55.6759" y1="240.299" x2="62.8085" y2="240.299">
		<stop  offset="0" style="stop-color:#067FED"/>
		<stop  offset="1" style="stop-color:#07EDE6"/>
	</linearGradient>
	<path class="st3" d="M57.4,247c-0.6-0.6-1.1-1.2-1.7-1.8c0.6-4.3,1.9-8.3,4.8-11.6c1.9,0.7,2.7,1.9,2.2,3.9
		C57.6,238.8,60.8,244.8,57.4,247z"/>
	<linearGradient id="SVGID_5_" gradientUnits="userSpaceOnUse" x1="55.283" y1="185.9713" x2="316.1386" y2="185.9713">
		<stop  offset="0" style="stop-color:#067FED"/>
		<stop  offset="1" style="stop-color:#07EDE6"/>
	</linearGradient>
	<path class="st4" d="M315,153.3c-16.8-54.8-69.7-93-128-92.7C129.4,61,77.3,100.1,60.8,154.8c-7.9,26.3-6.8,52.5-0.3,78.8
		c0.3,1.5,1,2.9,2.2,3.9c10.7,30.5,30.2,53.6,57.6,70.7c6.4,4,11.8,4.6,17.9-0.4c-14.8-7.4-28.5-15.8-39.7-28.6
		c8.5-4.8,17.1-7.4,25.6-10.4c5.1-1.7,7.1-0.8,8.8,4.3c3.2,9.5,7.9,18.4,13.4,26.8c2.2,3.4,4.2,3.6,7.7,1.7c4.6-2.5,1.3-4.5,0-6.6
		c-4.9-7.7-9-15.7-12.3-24.2c-1.6-3.9-2.2-6.5,3.3-7c10.9-1.1,21.8-2.3,32.7-3.7c5.1-0.7,6.6,1.4,6.3,6.2c-0.3,5-0.1,10.1-0.1,15.7
		c6.7-2.7,10-5.9,8.9-12c-1.8-9.5,3.1-11.4,10.9-9.7c6.6,1.4,11.3-0.4,14.2-7.6c-7.2-0.4-13.7-0.9-20.3-1.2c-3.5-0.1-5-1.4-4.9-5.1
		c0.1-14.4,0.2-28.9,0-43.3c0-4.1,1.3-5.5,5.4-5.4c9.1,0.2,18.2,0.1,27.3,0.1c24.4,0,24.3,0,21.4,24.6c-0.3,2.4-3,6.1,1.2,7.2
		c3,0.8,5.4-2.4,6.2-4.8c3.1-8.7,4.2-18.4,1.8-26.8c-1.4-5.1-10.3-5.8-16.1-8.1c-2.5-1-5.6-0.7-8.4-0.7c-10-0.1-20.1-0.4-30.1,0.1
		c-6.7,0.3-9.5-1.1-9-8.6c0.7-11.6,1-23.3-0.1-34.8c-0.9-10.2,2.1-14,12.4-13c5.2,0.5,10.6-0.9,15.9-1.4c6.1-0.6,14-5.1,17.8-1.4
		c4,3.8,4.2,12,5.3,18.5c1.1,6.2,3.7,9.2,10.9,8.1c-1.9-8.5-3.3-16.5-5.4-24.3c-1.3-4.7,0.1-6.5,4.6-7.8c7.8-2.4,15.7-4.7,22.9-8.4
		c5.6-2.9,8.5-1.4,11.3,3.2c3.4,5.6,7.1,11.1,10.5,16.7c5.4,9.3,8.1,19.7,11.7,30.2C317,159.9,317,159.9,315,153.3z M183.7,161.6
		c0,7.5-0.2,15,0.1,22.5c0.1,4.1-1.4,5.4-5.4,5.4c-15-0.2-30-0.1-45.1,0c-3.7,0-4.9-1.3-4.8-4.9c0.4-17.6,3.3-34.8,7.7-51.8
		c1-3.9,3-3.6,6.2-3.2c12.1,1.6,24.2,3.1,36.4,4c4.2,0.3,5.2,1.6,5.1,5.5C183.5,146.5,183.7,154.1,183.7,161.6z M183.7,69.4
		c0,17.8-0.1,34.3,0.1,50.8c0,3.8-1.4,4.7-5,4.6c-12.8-0.5-25.4-1.6-38.6-4.9C149.2,98.5,158.3,77.8,183.7,69.4z M158,73.2
		c-12.1,12.9-19.7,26.3-25.2,40.9c-1.1,2.9-2.4,4-5.5,3.1c-9.3-2.6-18.4-5.6-27.7-10.5C115.9,90.2,134.5,79.5,158,73.2z
		 M120.9,260.9c-8.4,2.4-16.5,5.7-24.5,9.3c-3.6,1.6-5.5,1.2-7.8-1.9c-14.1-19.1-22.3-40.3-24.4-64c-0.4-5,1-6.7,6-6.4
		c7.2,0.4,14.4,0.1,23.1,0.1c7.5,0.8,19.3-3.9,24.6,1.8c4.7,5,2.1,16.7,3.3,25.3c1.3,9,2.8,17.9,5,26.7
		C127.8,257.4,126.4,259.3,120.9,260.9z M124.4,143.8c-2.9,12.6-4.3,25.4-4.6,38.2c-0.1,6.5-2.5,7.9-8.2,7.6
		c-6.6-0.4-13.2-0.1-19.7-0.1c-7.2,0-14.4-0.3-21.6,0.1c-5.2,0.3-6.4-1.7-5.9-6.6c2.2-24.4,10.8-46.1,25.7-65.5c2.3-3,4.2-3.8,7.7-2
		c4.5,2.2,9.2,4,13.8,5.8c5.5,2.1,13.2,2.7,15.9,6.6C129.5,131,125.7,138.3,124.4,143.8z M183.6,225.6c0.3,6.9-0.1,13.8,0.1,20.6
		c0.1,4.1-1.4,5.5-5.4,5.6c-12.5,0.3-24.9,1.4-37.2,4.1c-3.6,0.8-4.9-0.6-5.7-3.9c-4.1-16.1-6.6-32.4-7.1-49c-0.1-4.5,2-5.1,5.7-5
		c7.5,0.2,15,0.1,22.5,0.1c0,0.2,0,0.5,0,0.7c8.7,0,20.3-3.4,25.3,0.9C187.6,204.7,183.2,216.6,183.6,225.6z M215.5,123.5
		c-22.9,3.2-23,3.2-22.9-20c0-10.3,0-20.6,0.1-30.9c0-0.6,0.3-1.2,0.7-2.8c16.9,4.6,26,16.5,33.6,30.1
		C238.4,120.3,238.3,120.3,215.5,123.5z M249.9,117c-4,1.3-5.3-0.3-6.7-3.8c-5.5-14.3-12.8-27.7-25.6-40.3
		c24.1,6.5,42.8,17.1,58.9,33.6C267.7,111.7,258.7,114.1,249.9,117z"/>
</g>
</svg>
