<?xml version="1.0" encoding="utf-8"?>
<!-- Generator: Adobe Illustrator 23.0.3, SVG Export Plug-In . SVG Version: 6.00 Build 0)  -->
<svg version="1.1" id="Layer_1" xmlns="http://www.w3.org/2000/svg" xmlns:xlink="http://www.w3.org/1999/xlink" x="0px" y="0px"
	 viewBox="0 0 300 300" style="enable-background:new 0 0 300 300;" xml:space="preserve">
<style type="text/css">
	.st0{fill:url(#SVGID_1_);}
	.st1{fill:url(#SVGID_2_);}
	.st2{fill:url(#SVGID_3_);}
	.st3{fill:url(#SVGID_4_);}
	.st4{fill:url(#SVGID_5_);}
	.st5{fill:url(#SVGID_6_);}
	.st6{fill:url(#SVGID_7_);}
	.st7{fill:url(#SVGID_8_);}
	.st8{fill:url(#SVGID_9_);}
	.st9{fill:url(#SVGID_10_);}
	.st10{fill:url(#SVGID_11_);}
	.st11{fill:url(#SVGID_12_);}
	.st12{fill:url(#SVGID_13_);}
	.st13{fill:url(#SVGID_14_);}
	.st14{fill:url(#SVGID_15_);}
	.st15{fill:url(#SVGID_16_);}
	.st16{fill:none;stroke:#232323;stroke-width:7;stroke-linecap:round;stroke-miterlimit:10;}
	.st17{fill:none;stroke:#232323;stroke-width:7;stroke-linecap:round;stroke-linejoin:round;stroke-miterlimit:10;}
	.st18{fill:#232323;}
	.st19{fill:none;stroke:#232323;stroke-width:5;stroke-linecap:round;stroke-linejoin:round;stroke-miterlimit:10;}
	.st20{fill:url(#SVGID_17_);}
	.st21{fill:url(#SVGID_18_);}
	.st22{fill:url(#SVGID_19_);}
	.st23{fill:url(#SVGID_20_);}
	.st24{fill:url(#SVGID_21_);}
	.st25{fill:url(#SVGID_22_);}
	.st26{fill:url(#SVGID_23_);}
	.st27{fill:url(#SVGID_24_);}
	.st28{fill:url(#SVGID_25_);}
	.st29{fill:url(#SVGID_26_);}
	.st30{fill:url(#SVGID_27_);}
	.st31{fill:url(#SVGID_28_);}
	.st32{opacity:0.8;}
	.st33{fill:#FFFFFF;}
</style>
<linearGradient id="SVGID_1_" gradientUnits="userSpaceOnUse" x1="35.5758" y1="149.3567" x2="251.1586" y2="149.3567">
	<stop  offset="0" style="stop-color:#FF0F87"/>
	<stop  offset="1" style="stop-color:#4612CC"/>
</linearGradient>
<path class="st0" d="M119.4,155.4c0-1.9,1.6-3.5,3.5-3.5h40.5c1.9,0,3.5,1.6,3.5,3.5s-1.6,3.5-3.5,3.5h-40.5
	C121,158.9,119.4,157.3,119.4,155.4z M163.4,172.3h-40.5c-1.9,0-3.5,1.6-3.5,3.5s1.6,3.5,3.5,3.5h40.5c1.9,0,3.5-1.6,3.5-3.5
	S165.4,172.3,163.4,172.3z M251.2,281.2c0.1,1.9-1.4,3.6-3.3,3.7c-0.1,0-0.1,0-0.2,0c-1.9,0-3.4-1.5-3.5-3.3
	c-2.8-55.1-31.3-55.2-52-55.3c-4.9,0-9.1,0-12.6-0.8c-5.7-1.1-9.9-3.9-12.5-8.3c-3-5-3.1-11-2.6-15.2c-6.8,2.8-14,4.3-21.6,4.3
	c-0.8,0-1.5,0-2.3,0c-6.1-0.2-12.2-1.4-18.1-3.5c0.4,4.1,0.1,9.7-2.7,14.4c-2.6,4.3-6.8,7.1-12.5,8.3c-3.5,0.7-7.7,0.7-12.6,0.8
	c-20.8,0.1-49.3,0.2-52,55.3c-0.1,1.9-1.6,3.3-3.5,3.3c-0.1,0-0.1,0-0.2,0c-1.9-0.1-3.4-1.7-3.3-3.7c3.1-61.7,38.1-61.9,59-62
	c4.5,0,8.4,0,11.3-0.6c3.7-0.7,6.3-2.4,7.9-5c2.9-4.8,1.6-11.7,1.1-14c-14.5-7-26.8-19.2-33.1-33.8c-2.3-5.3-4.3-10.4-5.9-15.4
	c0,0-0.1,0-0.1,0c-0.2,0-0.4,0-0.7-0.1c-0.8-0.2-20.6-4.4-26.5-35.4c-1.7-9.1-0.3-15.8,4.2-20c5-4.8,12.4-4.6,16.2-4.2
	c1.3-11.1,4-21.2,7.1-30.9c7.8-24.3,34.8-44,62.7-45.9c16.6-1.1,47.4,3.3,67.5,45.4c4.9,10.3,8.1,20.7,9.7,31.2c4-0.3,10.5,0,15,4.3
	c4.5,4.2,5.9,11,4.2,20c-5.8,31-25.6,35.2-26.5,35.4c-0.2,0-0.4,0.1-0.7,0.1c0,0,0,0,0,0c-2.1,5.2-4.5,10.4-7.3,15.6
	c-7.6,14.4-17.3,25.2-28.5,32c0,0.3,0,0.6-0.1,0.9c0,0.1-2.6,8.9,0.9,14.7c1.6,2.6,4.1,4.2,7.9,5c2.9,0.6,6.8,0.6,11.3,0.6
	C213.1,219.3,248,219.4,251.2,281.2z M210.1,108.9c-6.5,8.5-17.5,21.1-30.7,29l4,41.3c4.1-4.7,7.8-10.2,11.1-16.5
	C204.4,144.1,209.5,126.2,210.1,108.9z M217.1,97.5c0,0.4,0,0.9-0.2,1.3c1,14-1,28.3-5.9,43.1c5-2.7,13.7-9.9,17.2-28.3
	c1.2-6.6,0.5-11.2-2.1-13.7C223.9,97.8,220,97.4,217.1,97.5z M75.3,96.9c3,4.6,17.3,25.3,35.3,35.6h64.2c17.4-10,31.4-29.7,35-35.1
	c-1.1-11.8-4.3-23.4-9.8-34.9C186.4,34,164.8,19.3,139.3,21c-24.8,1.7-49.7,19.7-56.5,41C79,73.6,76.3,84.9,75.3,96.9z M73.3,142.3
	c-4.6-16.5-5.8-31.1-5-44.3c0-0.1,0-0.2,0-0.3c-2.9-0.4-7.9-0.4-10.8,2.3c-2.6,2.5-3.3,7.1-2.1,13.7
	C59.1,132.9,68.4,139.9,73.3,142.3z M101.7,182l4.3-44.1c-13.4-8.1-24.5-20.8-31-29.4c0.3,16.2,4.2,33.7,13.1,54.5
	C91.2,170.1,95.9,176.5,101.7,182z M177,185.7l-4.5-46.3h-59.7l-4.6,47.5c0,0.1-0.1,0.3-0.1,0.4c9.6,7,21.2,11.4,32.6,11.9
	C154.1,199.8,166.5,195.1,177,185.7z"/>
</svg>
