<?xml version="1.0" encoding="utf-8"?>
<!-- Generator: Adobe Illustrator 23.0.3, SVG Export Plug-In . SVG Version: 6.00 Build 0)  -->
<svg version="1.1" id="Layer_1" xmlns="http://www.w3.org/2000/svg" xmlns:xlink="http://www.w3.org/1999/xlink" x="0px" y="0px"
	 viewBox="0 0 28.4 28.4" style="enable-background:new 0 0 28.4 28.4;" xml:space="preserve">
<style type="text/css">
	.st0{fill:#F6F6F6;}
	.st1{fill:#010101;}
	.st2{fill:#F5F5F5;}
	.st3{fill:#020202;}
	.st4{fill:#FEFEFE;}
	.st5{fill:#F3F3F3;}
	.st6{fill:#FDFDFD;}
	.st7{fill:#FCFCFC;}
	.st8{fill:#FFFFFF;stroke:#000000;stroke-miterlimit:10;}
	.st9{fill:none;stroke:#000000;stroke-miterlimit:10;}
	.st10{fill:url(#SVGID_1_);}
	.st11{fill:url(#SVGID_2_);}
	.st12{fill:url(#SVGID_3_);}
	.st13{fill:url(#SVGID_4_);}
	.st14{fill:url(#SVGID_5_);}
	.st15{fill:url(#SVGID_6_);}
	.st16{fill:url(#SVGID_7_);}
	.st17{fill:url(#SVGID_8_);}
	.st18{fill:url(#SVGID_9_);}
	.st19{fill:url(#SVGID_10_);}
	.st20{fill:url(#SVGID_11_);}
	.st21{fill:url(#SVGID_12_);}
	.st22{fill:url(#SVGID_13_);}
	.st23{fill:#CA368D;}
	.st24{fill:#79226C;}
	.st25{fill:url(#SVGID_14_);}
	.st26{fill:url(#SVGID_15_);}
	.st27{fill:url(#SVGID_16_);}
	.st28{fill:url(#SVGID_17_);}
	.st29{fill:url(#SVGID_18_);}
	.st30{fill:url(#SVGID_19_);}
	.st31{fill:url(#SVGID_20_);}
	.st32{fill:url(#SVGID_21_);}
	.st33{fill:url(#SVGID_22_);}
	.st34{fill:url(#SVGID_23_);}
	.st35{fill:url(#SVGID_24_);}
	.st36{fill:url(#SVGID_25_);}
	.st37{opacity:0.8;}
	.st38{fill:#FFFFFF;}
</style>
<radialGradient id="SVGID_1_" cx="14.6816" cy="14.1481" r="13.3484" gradientUnits="userSpaceOnUse">
	<stop  offset="0" style="stop-color:#08F5FF"/>
	<stop  offset="1" style="stop-color:#580DBF"/>
</radialGradient>
<path class="st10" d="M14.7,7.8c-3.5,0-6.4,2.9-6.4,6.4s2.9,6.4,6.4,6.4s6.4-2.9,6.4-6.4S18.2,7.8,14.7,7.8z M14.7,19.5
	c-3,0-5.4-2.4-5.4-5.4s2.4-5.4,5.4-5.4s5.4,2.4,5.4,5.4S17.6,19.5,14.7,19.5z M26.4,12.5c-0.7,0-1.3,0.5-1.6,1.1H23
	c-0.1-1.9-0.9-3.7-2.1-5l1.3-1.3c0.2,0.1,0.5,0.2,0.7,0.2c0.4,0,0.8-0.2,1.2-0.5c0.6-0.6,0.6-1.7,0-2.3c-0.6-0.6-1.7-0.6-2.3,0
	c-0.5,0.5-0.6,1.3-0.3,1.9l-1.3,1.3c-1.4-1.2-3.1-2-5-2.1V4c0.7-0.2,1.1-0.8,1.1-1.6c0-0.9-0.7-1.6-1.6-1.6S13,1.5,13,2.4
	c0,0.7,0.5,1.3,1.1,1.6v1.8c-1.9,0.1-3.7,0.9-5,2.1L7.9,6.6C8.2,6,8.1,5.2,7.6,4.7c-0.6-0.6-1.7-0.6-2.3,0C4.6,5.3,4.6,6.4,5.2,7
	C5.6,7.3,6,7.5,6.4,7.5c0.3,0,0.5-0.1,0.7-0.2l1.3,1.3c-1.2,1.4-2,3.1-2.1,5H4.5C4.3,13,3.7,12.5,3,12.5c-0.9,0-1.6,0.7-1.6,1.6
	c0,0.9,0.7,1.6,1.6,1.6c0.7,0,1.3-0.5,1.6-1.1h1.8c0.1,1.9,0.9,3.7,2.1,5L7.1,21c-0.6-0.3-1.4-0.2-1.9,0.3c-0.6,0.6-0.6,1.7,0,2.3
	c0.3,0.3,0.7,0.5,1.2,0.5s0.8-0.2,1.2-0.5c0.5-0.5,0.6-1.3,0.3-1.9l1.3-1.3c1.4,1.2,3.1,2,5,2.1v1.8c-0.7,0.2-1.1,0.8-1.1,1.6
	c0,0.9,0.7,1.6,1.6,1.6s1.6-0.7,1.6-1.6c0-0.7-0.5-1.3-1.1-1.6v-1.8c1.9-0.1,3.7-0.9,5-2.1l1.3,1.3c-0.1,0.2-0.2,0.5-0.2,0.7
	c0,0.4,0.2,0.8,0.5,1.2c0.3,0.3,0.7,0.5,1.2,0.5s0.8-0.2,1.2-0.5c0.3-0.3,0.5-0.7,0.5-1.2s-0.2-0.9-0.5-1.2
	c-0.5-0.5-1.3-0.6-1.9-0.3l-1.3-1.3c1.2-1.4,2-3.1,2.1-5h1.8c0.2,0.7,0.8,1.1,1.6,1.1c0.9,0,1.6-0.7,1.6-1.6
	C28,13.2,27.3,12.5,26.4,12.5z M22.5,5.4c0.1-0.1,0.3-0.2,0.5-0.2s0.3,0.1,0.5,0.2c0.2,0.2,0.2,0.7,0,0.9c-0.2,0.2-0.7,0.2-0.9,0
	C22.3,6.1,22.3,5.7,22.5,5.4z M14.7,1.8c0.4,0,0.6,0.3,0.6,0.6S15,3.1,14.7,3.1S14,2.8,14,2.4S14.3,1.8,14.7,1.8z M5.9,6.3
	c-0.2-0.2-0.2-0.7,0-0.9c0.1-0.1,0.3-0.2,0.5-0.2c0.2,0,0.3,0.1,0.5,0.2c0.2,0.2,0.2,0.7,0,0.9C6.6,6.6,6.2,6.6,5.9,6.3z M3,14.8
	c-0.4,0-0.6-0.3-0.6-0.6s0.3-0.6,0.6-0.6s0.6,0.3,0.6,0.6S3.3,14.8,3,14.8z M6.9,22.9c-0.3,0.2-0.7,0.2-0.9,0
	c-0.2-0.2-0.2-0.7,0-0.9c0.2-0.2,0.7-0.3,0.9,0C7.1,22.2,7.1,22.6,6.9,22.9z M14.7,26.5c-0.4,0-0.6-0.3-0.6-0.6s0.3-0.6,0.6-0.6
	s0.6,0.3,0.6,0.6S15,26.5,14.7,26.5z M23.4,22c0.1,0.1,0.2,0.3,0.2,0.5s-0.1,0.3-0.2,0.5c-0.2,0.2-0.7,0.2-0.9,0
	c-0.1-0.1-0.2-0.3-0.2-0.5s0.1-0.3,0.2-0.5c0.1-0.1,0.3-0.2,0.5-0.2S23.3,21.9,23.4,22z M14.7,21.5c-4,0-7.3-3.3-7.3-7.3
	s3.3-7.3,7.3-7.3s7.3,3.3,7.3,7.3S18.7,21.5,14.7,21.5z M26.4,14.8c-0.4,0-0.6-0.3-0.6-0.6s0.3-0.6,0.6-0.6s0.6,0.3,0.6,0.6
	S26.7,14.8,26.4,14.8z"/>
</svg>
